<?xml version="1.0" encoding="UTF-8" standalone="no"?>
<svg
   width="135.35545"
   height="70"
   overflow="hidden"
   version="1.1"
   id="svg23"
   sodipodi:docname="logo.svg"
   inkscape:version="1.3.2 (091e20e, 2023-11-25, custom)"
   xmlns:inkscape="http://www.inkscape.org/namespaces/inkscape"
   xmlns:sodipodi="http://sodipodi.sourceforge.net/DTD/sodipodi-0.dtd"
   xmlns="http://www.w3.org/2000/svg"
   xmlns:svg="http://www.w3.org/2000/svg">
  <sodipodi:namedview
     id="namedview23"
     pagecolor="#ffffff"
     bordercolor="#666666"
     borderopacity="1.0"
     inkscape:showpageshadow="2"
     inkscape:pageopacity="0.0"
     inkscape:pagecheckerboard="0"
     inkscape:deskcolor="#d1d1d1"
     inkscape:zoom="3.2303922"
     inkscape:cx="201.21396"
     inkscape:cy="104.78604"
     inkscape:window-width="1920"
     inkscape:window-height="1017"
     inkscape:window-x="-8"
     inkscape:window-y="-8"
     inkscape:window-maximized="1"
     inkscape:current-layer="svg23" />
  <defs
     id="defs1">
    <clipPath
       id="clip0">
      <rect
         x="843"
         y="335"
         width="408"
         height="211"
         id="rect1" />
    </clipPath>
  </defs>
  <g
     clip-path="url(#clip0)"
     transform="matrix(0.31126812,0,0,0.31094059,-258.41978,-101.96939)"
     id="g23">
    <path
       d="m 151.453,167.407 c -24.98,-19.504 -43.416,-41.515 -56.1574,-67.062 l 39.9904,4.05 c 7.412,14.832 17.733,27.6 30.72,38.011 l -14.553,25.001"
       fill="#278ace"
       transform="matrix(1,0,0,-1.00297,843.411,546)"
       id="path1" />
    <path
       d="m 151.453,167.407 c -24.98,-19.504 -43.416,-41.515 -56.1574,-67.062 l 39.9904,4.05 c 7.412,14.832 17.733,27.6 30.72,38.011 z"
       stroke="#278ace"
       stroke-width="1.68322"
       stroke-miterlimit="22.9256"
       fill="none"
       transform="matrix(1,0,0,-1.00297,843.411,546)"
       id="path2" />
    <path
       d="M 90.8733,90.2232 C 79.6182,64.599 77.986,44.3528 85.9213,28.5282 l 43.9377,33.7565 c -3.769,8.3901 -3.274,19.205 1.473,32.2449 L 90.8733,90.2232"
       fill="#278ace"
       transform="matrix(1,0,0,-1.00297,843.411,546)"
       id="path3" />
    <path
       d="M 90.8733,90.2232 C 79.6182,64.599 77.986,44.3528 85.9213,28.5282 l 43.9377,33.7565 c -3.769,8.3901 -3.274,19.205 1.473,32.2449 z"
       stroke="#278ace"
       stroke-width="1.68322"
       stroke-miterlimit="22.9256"
       fill="none"
       transform="matrix(1,0,0,-1.00297,843.411,546)"
       id="path4" />
    <path
       d="M 75.8096,100.102 H 406.163 l -84.919,46.61 -0.042,-22.867 c -0.053,-0.27 -0.345,-0.661 -0.75,-0.654 l -20.081,0.255 c -0.198,0.004 -0.297,-0.175 -0.404,-0.013 l -85.766,-0.03 h -0.039 c -56.662,0.451 -71.391,6.497 -84.806,12.003 -11.121,4.567 -22.08,8.949 -55.3656,9.039 L 2.29368,144.443 21.294,126.595 c 0.442,-0.428 0.4055,-0.909 -0.0187,-1.28 L 2.29368,107.484 H 75.1866 c 0.4506,0 0.6595,-0.463 0.623,-0.892 v -6.49"
       fill="#eceded"
       fill-rule="evenodd"
       transform="matrix(1,0,0,-1.00297,843.411,546)"
       id="path5" />
    <path
       d="M 75.8149,100.104 H 406.168 l -84.919,-46.6096 -0.042,22.8659 c -0.053,0.2705 -0.345,0.6607 -0.748,0.6547 l -20.081,-0.2557 c -0.2,-0.0033 -0.299,0.1743 -0.405,0.014 l -85.766,0.0297 h -0.04 C 157.505,76.3523 142.777,70.3051 129.362,64.7978 118.241,60.2329 107.281,55.851 73.9956,55.7616 L 2.29899,55.7629 21.2993,73.61 c 0.4419,0.4287 0.4056,0.9092 -0.0185,1.2811 L 2.29899,92.721 H 75.1919 c 0.4506,0 0.6594,0.4646 0.623,0.8933 v 6.4897"
       fill="#b3b3b3"
       fill-rule="evenodd"
       transform="matrix(1,0,0,-1.00297,843.411,546)"
       id="path6" />
    <path
       d="M 170.789,45.2394 151.734,3.17644 C 176.859,7.0633 201.41,18.3952 226.536,37.691 L 212.245,62.9255 C 199.157,53.377 185.238,47.4358 170.789,45.2394"
       fill="#278ace"
       transform="matrix(1,0,0,-1.00297,843.411,546)"
       id="path7" />
    <path
       d="M 170.789,45.2394 151.734,3.17644 C 176.859,7.0633 201.41,18.3952 226.536,37.691 L 212.245,62.9255 C 199.157,53.377 185.238,47.4358 170.789,45.2394 Z"
       stroke="#278ace"
       stroke-width="1.68322"
       stroke-miterlimit="22.9256"
       fill="none"
       transform="matrix(1,0,0,-1.00297,843.411,546)"
       id="path8" />
    <path
       d="m 225.122,166.756 c 11.903,-0.055 20.611,-3.574 25.945,-10.473 l 43.946,34.038 c -9.265,14.852 -25.725,21.065 -50.406,18.983 l -19.485,-42.548"
       fill="#278ace"
       transform="matrix(1,0,0,-1.00297,843.411,546)"
       id="path9" />
    <path
       d="m 159.381,173.52 14.29,-25.234 c 13.089,9.548 27.006,15.488 41.454,17.685 l 19.056,42.063 c -25.124,-3.886 -49.674,-15.219 -74.8,-34.514"
       fill="#278ace"
       transform="matrix(1,0,0,-1.00297,843.411,546)"
       id="path10" />
    <path
       d="m 159.381,173.52 14.29,-25.234 c 13.089,9.548 27.006,15.488 41.454,17.685 l 19.056,42.063 c -25.124,-3.886 -49.674,-15.219 -74.8,-34.514 z"
       stroke="#278ace"
       stroke-width="1.68322"
       stroke-miterlimit="22.9256"
       fill="none"
       transform="matrix(1,0,0,-1.00297,843.411,546)"
       id="path11" />
    <path
       d="M 90.9032,20.8911 C 100.168,6.0394 116.617,-0.170321 141.311,1.90732 l 19.484,42.54678 c -11.904,0.0563 -20.608,3.5748 -25.945,10.4744 L 90.9032,20.8911"
       fill="#278ace"
       transform="matrix(1,0,0,-1.00297,843.411,546)"
       id="path12" />
    <path
       d="M 90.9032,20.8911 C 100.168,6.0394 116.617,-0.170321 141.311,1.90732 l 19.484,42.54678 c -11.904,0.0563 -20.608,3.5748 -25.945,10.4744 z"
       stroke="#278ace"
       stroke-width="1.68322"
       stroke-miterlimit="22.9256"
       fill="none"
       transform="matrix(1,0,0,-1.00297,843.411,546)"
       id="path13" />
    <path
       d="m 219.913,68.806 14.55,-25.0032 c 24.982,19.5019 43.415,41.5149 56.16,67.0622 l -39.994,-4.049 c -7.412,-14.8313 -17.73,-27.5987 -30.716,-38.01"
       fill="#278ace"
       transform="matrix(1,0,0,-1.00297,843.411,546)"
       id="path14" />
    <path
       d="m 219.913,68.806 14.55,-25.0032 c 24.982,19.5019 43.415,41.5149 56.16,67.0622 l -39.994,-4.049 c -7.412,-14.8313 -17.73,-27.5987 -30.716,-38.01 z"
       stroke="#278ace"
       stroke-width="1.68322"
       stroke-miterlimit="22.9256"
       fill="none"
       transform="matrix(1,0,0,-1.00297,843.411,546)"
       id="path15" />
    <path
       d="m 256.058,148.926 c 3.77,-8.39 3.273,-19.205 -1.476,-32.246 l 40.46,4.309 c 11.257,25.622 12.891,45.868 4.954,61.694 l -43.938,-33.757"
       fill="#278ace"
       transform="matrix(1,0,0,-1.00297,843.411,546)"
       id="path16" />
    <path
       d="M 95.6118,116.645 H 224.373 V 83.9247 H 95.6118 v 32.7203"
       fill="#ffffff"
       fill-rule="evenodd"
       transform="matrix(1,0,0,-1.00297,843.411,546)"
       id="path17" />
    <text
       fill="#231f20"
       font-family="Arial, Arial_MSFontService, sans-serif"
       font-weight="700"
       font-size="15px"
       transform="matrix(1.69657,0,0,1.70161,949.213,454)"
       id="text23">S<tspan
   font-size="15px"
   x="9.6742296"
   y="0"
   id="tspan17">F</tspan><tspan
   font-size="15px"
   x="18.5362"
   y="0"
   id="tspan18">B</tspan><tspan
   font-size="15px"
   x="29.0082"
   y="0"
   id="tspan19" /><tspan
   font-size="15px"
   x="33.040298"
   y="0"
   id="tspan20">1</tspan><tspan
   font-size="15px"
   x="40.304298"
   y="0"
   id="tspan21">1</tspan><tspan
   font-size="15px"
   x="48.368599"
   y="0"
   id="tspan22">5</tspan><tspan
   font-size="15px"
   x="56.432899"
   y="0"
   id="tspan23">3</tspan></text>
  </g>
</svg>
